<svg width="80" height="80" viewBox="0 0 80 80" fill="none" xmlns="http://www.w3.org/2000/svg">
<g clip-path="url(#clip0_324_1094)">
<mask id="mask0_324_1094" style="mask-type:alpha" maskUnits="userSpaceOnUse" x="0" y="0" width="80" height="80">
<path d="M80 40C80 17.9086 62.0914 0 40 0C17.9086 0 0 17.9086 0 40C0 62.0914 17.9086 80 40 80C62.0914 80 80 62.0914 80 40Z" fill="white"/>
</mask>
<g mask="url(#mask0_324_1094)">
<path d="M80 0H0V80H80V0Z" fill="#F6E4AD"/>
<path d="M113.97 48.2895L75.4534 -2.82317C69.1383 -11.2036 57.2253 -12.8779 48.8449 -6.56276L-2.26782 31.9534C-10.6482 38.2685 -12.3225 50.1816 -6.00742 58.562L32.5087 109.675C38.8238 118.055 50.7369 119.729 59.1173 113.414L110.23 74.8981C118.61 68.583 120.285 56.6699 113.97 48.2895Z" fill="#D8A816" stroke="white" stroke-width="6"/>
<path d="M40.7714 37.4199C45.0934 39.8717 49.5318 40.1043 54.0864 38.1177" stroke="#F6E4AD" stroke-width="2.22222" stroke-linecap="round"/>
<path d="M35.9212 23.814C35.9854 22.5884 35.2923 21.5558 34.3731 21.5076C33.4539 21.4595 32.6567 22.414 32.5924 23.6396C32.5282 24.8652 33.2213 25.8978 34.1405 25.946C35.0597 25.9942 35.857 25.0397 35.9212 23.814Z" fill="#F6E4AD"/>
<path d="M62.5513 25.2095C62.6156 23.9839 61.9225 22.9513 61.0032 22.9031C60.084 22.855 59.2868 23.8095 59.2226 25.0351C59.1583 26.2607 59.8514 27.2933 60.7706 27.3415C61.6899 27.3897 62.4871 26.4352 62.5513 25.2095Z" fill="#F6E4AD"/>
</g>
</g>
<defs>
<clipPath id="clip0_324_1094">
<rect width="80" height="80" fill="white"/>
</clipPath>
</defs>
</svg>
