<svg width="80" height="80" viewBox="0 0 80 80" fill="none" xmlns="http://www.w3.org/2000/svg">
<g clip-path="url(#clip0_324_1083)">
<mask id="mask0_324_1083" style="mask-type:alpha" maskUnits="userSpaceOnUse" x="0" y="0" width="80" height="80">
<path d="M80 40C80 17.9086 62.0914 0 40 0C17.9086 0 0 17.9086 0 40C0 62.0914 17.9086 80 40 80C62.0914 80 80 62.0914 80 40Z" fill="white"/>
</mask>
<g mask="url(#mask0_324_1083)">
<path d="M80 0H0V80H80V0Z" fill="#F6E4AD"/>
<path d="M98.3479 76.2517L102.44 17.7279C103.121 7.99464 95.7823 -0.447476 86.049 -1.12809L27.5253 -5.22047C17.792 -5.90109 9.34989 1.43753 8.66928 11.1708L4.5769 69.6946C3.89628 79.4278 11.2349 87.8699 20.9682 88.5506L79.4919 92.6429C89.2252 93.3235 97.6673 85.9849 98.3479 76.2517Z" fill="#D8A816" stroke="white" stroke-width="6"/>
<path d="M42.5486 31.5654C47.1372 33.4722 51.5708 33.1622 55.8494 30.6353" stroke="#F6E4AD" stroke-width="2.22222" stroke-linecap="round"/>
<path d="M34.0147 21.0238C33.929 19.7995 33.1153 18.8591 32.197 18.9233C31.2788 18.9875 30.6038 20.032 30.6894 21.2564C30.7751 22.4807 31.5888 23.4211 32.5071 23.3569C33.4253 23.2927 34.1003 22.2481 34.0147 21.0238Z" fill="#F6E4AD"/>
<path d="M65.0501 18.8534C64.9644 17.6291 64.1507 16.6887 63.2324 16.7529C62.3142 16.8171 61.6392 17.8616 61.7248 19.0859C61.8105 20.3103 62.6242 21.2507 63.5425 21.1865C64.4607 21.1223 65.1357 20.0777 65.0501 18.8534Z" fill="#F6E4AD"/>
</g>
</g>
<defs>
<clipPath id="clip0_324_1083">
<rect width="80" height="80" fill="white"/>
</clipPath>
</defs>
</svg>
