<svg width="80" height="80" viewBox="0 0 80 80" fill="none" xmlns="http://www.w3.org/2000/svg">
<g clip-path="url(#clip0_324_1061)">
<mask id="mask0_324_1061" style="mask-type:alpha" maskUnits="userSpaceOnUse" x="0" y="0" width="80" height="80">
<path d="M80 40C80 17.9086 62.0914 0 40 0C17.9086 0 0 17.9086 0 40C0 62.0914 17.9086 80 40 80C62.0914 80 80 62.0914 80 40Z" fill="white"/>
</mask>
<g mask="url(#mask0_324_1061)">
<path d="M80 0H0V80H80V0Z" fill="#F6E4AD"/>
<path d="M60.8302 18.5456C41.6175 4.58675 14.7266 8.84585 0.767708 28.0586C-13.1912 47.2713 -8.93206 74.1622 10.2807 88.1211C29.4934 102.08 56.3843 97.8208 70.3432 78.6081C84.302 59.3954 80.0429 32.5045 60.8302 18.5456Z" fill="#D8A816" stroke="white" stroke-width="6"/>
<path d="M24.2729 54.3823C24.0419 56.5804 24.9846 58.8107 26.8936 60.5828C28.8025 62.3548 31.5214 63.5234 34.4521 63.8314C37.3828 64.1395 40.2853 63.5617 42.521 62.2253C44.7566 60.8889 46.1424 58.9032 46.3734 56.7052" fill="#F6E4AD"/>
<path d="M28.5171 45.8905C28.6454 44.6699 28.0073 43.6025 27.0919 43.5062C26.1764 43.41 25.3303 44.3215 25.202 45.5421C25.0738 46.7627 25.7119 47.8301 26.6273 47.9263C27.5427 48.0226 28.3888 47.1111 28.5171 45.8905Z" fill="#F6E4AD"/>
<path d="M46.1975 47.7489C46.3258 46.5283 45.6877 45.4609 44.7723 45.3646C43.8569 45.2684 43.0107 46.1799 42.8825 47.4005C42.7542 48.6211 43.3923 49.6885 44.3077 49.7847C45.2231 49.881 46.0692 48.9695 46.1975 47.7489Z" fill="#F6E4AD"/>
</g>
</g>
<defs>
<clipPath id="clip0_324_1061">
<rect width="80" height="80" fill="white"/>
</clipPath>
</defs>
</svg>
