<svg width="80" height="80" viewBox="0 0 80 80" fill="none" xmlns="http://www.w3.org/2000/svg">
<g clip-path="url(#clip0_324_1050)">
<mask id="mask0_324_1050" style="mask-type:alpha" maskUnits="userSpaceOnUse" x="0" y="0" width="80" height="80">
<path d="M80 40C80 17.9086 62.0914 0 40 0C17.9086 0 0 17.9086 0 40C0 62.0914 17.9086 80 40 80C62.0914 80 80 62.0914 80 40Z" fill="white"/>
</mask>
<g mask="url(#mask0_324_1050)">
<path d="M80 0H0V80H80V0Z" fill="#F6E4AD"/>
<path d="M0.99226 9.14346C-18.3957 27.223 -19.4563 57.5964 -1.3768 76.9844C16.7028 96.3723 47.0762 97.433 66.4641 79.3534C85.8521 61.2739 86.9127 30.9005 68.8332 11.5125C50.7536 -7.87542 20.3802 -8.93609 0.99226 9.14346Z" fill="#D8A816"/>
<path d="M21.4927 53.0405C21.2233 55.2342 22.1269 57.4807 24.0047 59.2858C25.8824 61.0909 28.5805 62.3067 31.5054 62.6658C34.4303 63.025 37.3424 62.498 39.601 61.2008C41.8597 59.9036 43.2799 57.9424 43.5493 55.7487" fill="#F6E4AD"/>
<path d="M24.2204 39.942C24.37 38.7238 23.7506 37.6454 22.837 37.5332C21.9234 37.421 21.0615 38.3176 20.9119 39.5357C20.7623 40.7539 21.3817 41.8323 22.2953 41.9445C23.209 42.0567 24.0708 41.1601 24.2204 39.942Z" fill="#F6E4AD"/>
<path d="M46.2769 42.65C46.4265 41.4318 45.8071 40.3534 44.8935 40.2412C43.9799 40.129 43.118 41.0256 42.9684 42.2437C42.8189 43.4619 43.4382 44.5403 44.3519 44.6525C45.2655 44.7647 46.1274 43.8681 46.2769 42.65Z" fill="#F6E4AD"/>
</g>
</g>
<defs>
<clipPath id="clip0_324_1050">
<rect width="80" height="80" fill="white"/>
</clipPath>
</defs>
</svg>
