<svg width="80" height="80" viewBox="0 0 80 80" fill="none" xmlns="http://www.w3.org/2000/svg">
<g clip-path="url(#clip0_324_1006)">
<mask id="mask0_324_1006" style="mask-type:alpha" maskUnits="userSpaceOnUse" x="0" y="0" width="80" height="80">
<path d="M80 40C80 17.9086 62.0914 0 40 0C17.9086 0 0 17.9086 0 40C0 62.0914 17.9086 80 40 80C62.0914 80 80 62.0914 80 40Z" fill="white"/>
</mask>
<g mask="url(#mask0_324_1006)">
<path d="M80 0H0V80H80V0Z" fill="#F6E4AD"/>
<path d="M108.055 41.2748L61.2015 5.96831C53.4092 0.096384 42.3321 1.65316 36.4602 9.44547L1.15373 56.2988C-4.7182 64.0911 -3.16142 75.1681 4.63089 81.04L51.4842 116.347C59.2765 122.218 70.3535 120.662 76.2255 112.869L111.532 66.0161C117.404 58.2238 115.847 47.1467 108.055 41.2748Z" fill="#D8A816" stroke="white" stroke-width="6"/>
<path d="M37.2911 53.543C37.5605 55.7366 38.9807 57.6978 41.2394 58.995C43.498 60.2922 46.4101 60.8192 49.335 60.4601C52.2599 60.101 54.958 58.8851 56.8357 57.08C58.7135 55.2749 59.6171 53.0284 59.3477 50.8348" fill="#F6E4AD"/>
<path d="M37.0399 42.3795C36.8903 41.1614 36.0284 40.2648 35.1148 40.377C34.2012 40.4891 33.5818 41.5676 33.7314 42.7857C33.881 44.0039 34.7428 44.9005 35.6565 44.7883C36.5701 44.6761 37.1894 43.5977 37.0399 42.3795Z" fill="#F6E4AD"/>
<path d="M59.0965 39.6715C58.9469 38.4533 58.0851 37.5568 57.1715 37.669C56.2578 37.7811 55.6385 38.8596 55.788 40.0777C55.9376 41.2959 56.7995 42.1924 57.7131 42.0803C58.6267 41.9681 59.2461 40.8896 59.0965 39.6715Z" fill="#F6E4AD"/>
</g>
</g>
<defs>
<clipPath id="clip0_324_1006">
<rect width="80" height="80" fill="white"/>
</clipPath>
</defs>
</svg>
