<svg width="80" height="80" viewBox="0 0 80 80" fill="none" xmlns="http://www.w3.org/2000/svg">
<g clip-path="url(#clip0_324_1039)">
<mask id="mask0_324_1039" style="mask-type:alpha" maskUnits="userSpaceOnUse" x="0" y="0" width="80" height="80">
<path d="M80 40C80 17.9086 62.0914 0 40 0C17.9086 0 0 17.9086 0 40C0 62.0914 17.9086 80 40 80C62.0914 80 80 62.0914 80 40Z" fill="white"/>
</mask>
<g mask="url(#mask0_324_1039)">
<path d="M80 0H0V80H80V0Z" fill="#F6E4AD"/>
<path d="M12.2154 45.5242L53.6632 79.088C60.6735 84.7648 70.9586 83.6838 76.6355 76.6735L110.199 35.2257C115.876 28.2153 114.795 17.9303 107.785 12.2534L66.3369 -21.3104C59.3266 -26.9872 49.0415 -25.9062 43.3647 -18.8959L9.80091 22.5519C4.12403 29.5623 5.20503 39.8473 12.2154 45.5242Z" fill="#D8A816" stroke="white" stroke-width="6"/>
<path d="M43.0679 32.2632C47.11 35.1533 51.4997 35.8486 56.237 34.349" stroke="#F6E4AD" stroke-width="2.22222" stroke-linecap="round"/>
<path d="M36.7763 22.2671C36.9683 21.0549 36.387 19.9555 35.4778 19.8115C34.5687 19.6675 33.676 20.5335 33.484 21.7456C33.292 22.9578 33.8734 24.0572 34.7825 24.2012C35.6917 24.3452 36.5843 23.4793 36.7763 22.2671Z" fill="#F6E4AD"/>
<path d="M67.5044 27.1338C67.6963 25.9216 67.115 24.8222 66.2058 24.6782C65.2967 24.5342 64.4041 25.4002 64.2121 26.6123C64.0201 27.8245 64.6014 28.9239 65.5106 29.0679C66.4197 29.2119 67.3124 28.346 67.5044 27.1338Z" fill="#F6E4AD"/>
</g>
</g>
<defs>
<clipPath id="clip0_324_1039">
<rect width="80" height="80" fill="white"/>
</clipPath>
</defs>
</svg>
