<svg width="80" height="80" viewBox="0 0 80 80" fill="none" xmlns="http://www.w3.org/2000/svg">
<g clip-path="url(#clip0_324_1028)">
<mask id="mask0_324_1028" style="mask-type:alpha" maskUnits="userSpaceOnUse" x="0" y="0" width="80" height="80">
<path d="M80 40C80 17.9086 62.0914 0 40 0C17.9086 0 0 17.9086 0 40C0 62.0914 17.9086 80 40 80C62.0914 80 80 62.0914 80 40Z" fill="white"/>
</mask>
<g mask="url(#mask0_324_1028)">
<path d="M80 0H0V80H80V0Z" fill="#F6E4AD"/>
<path d="M20.7631 12.1828L11.8561 75.56C10.3957 85.9513 17.6356 95.559 28.0269 97.0194L91.404 105.926C101.795 107.387 111.403 100.147 112.863 89.7556L121.77 26.3785C123.231 15.9872 115.991 6.37947 105.6 4.91907L42.2225 -3.988C31.8312 -5.44841 22.2235 1.79152 20.7631 12.1828Z" fill="#D8A816" stroke="white" stroke-width="6"/>
<path d="M38.8138 57.0371C39.1214 59.2257 40.5757 61.1618 42.8566 62.4194C45.1376 63.677 48.0584 64.1531 50.9766 63.743C53.8948 63.3329 56.5712 62.0701 58.4172 60.2325C60.2631 58.3949 61.1274 56.133 60.8198 53.9444" fill="#F6E4AD"/>
<path d="M35.8578 43.9882C35.687 42.7728 34.8096 41.8914 33.8981 42.0195C32.9866 42.1476 32.3861 43.2367 32.557 44.4521C32.7278 45.6674 33.6052 46.5488 34.5167 46.4207C35.4282 46.2926 36.0287 45.2035 35.8578 43.9882Z" fill="#F6E4AD"/>
<path d="M62.265 40.2767C62.0941 39.0614 61.2167 38.18 60.3052 38.3081C59.3937 38.4362 58.7933 39.5253 58.9641 40.7406C59.1349 41.956 60.0123 42.8374 60.9238 42.7093C61.8353 42.5812 62.4358 41.4921 62.265 40.2767Z" fill="#F6E4AD"/>
</g>
</g>
<defs>
<clipPath id="clip0_324_1028">
<rect width="80" height="80" fill="white"/>
</clipPath>
</defs>
</svg>
