<svg width="80" height="80" viewBox="0 0 80 80" fill="none" xmlns="http://www.w3.org/2000/svg">
<g clip-path="url(#clip0_324_995)">
<mask id="mask0_324_995" style="mask-type:alpha" maskUnits="userSpaceOnUse" x="0" y="0" width="80" height="80">
<path d="M80 40C80 17.9086 62.0914 0 40 0C17.9086 0 0 17.9086 0 40C0 62.0914 17.9086 80 40 80C62.0914 80 80 62.0914 80 40Z" fill="white"/>
</mask>
<g mask="url(#mask0_324_995)">
<path d="M80 -4H-2V81H80V-4Z" fill="#F6E4AD"/>
<path d="M53.8148 20.1005C31.0346 23.7085 15.4925 45.1003 19.1005 67.8805C22.7086 90.6607 44.1004 106.203 66.8806 102.595C89.6608 98.9867 105.203 77.5949 101.595 54.8147C97.9868 32.0345 76.595 16.4924 53.8148 20.1005Z" fill="#D8A816" stroke="white" stroke-width="6"/>
<path d="M32.3914 55.1484C32.4363 57.2704 33.6121 59.2818 35.6601 60.7402C37.7082 62.1986 40.4606 62.9844 43.312 62.9249C46.1633 62.8654 48.8801 61.9653 50.8645 60.4227C52.8489 58.8802 53.9385 56.8215 53.8936 54.6995" fill="#F6E4AD"/>
<path d="M35.4632 46.4007C35.4382 45.2147 34.6984 44.2686 33.8108 44.2873C32.9232 44.3061 32.2239 45.2827 32.2488 46.4686C32.2738 47.6545 33.0136 48.6007 33.9012 48.5819C34.7888 48.5632 35.4882 47.5866 35.4632 46.4007Z" fill="#F6E4AD"/>
<path d="M52.6878 46.0999C52.6628 44.914 51.923 43.9678 51.0354 43.9865C50.1478 44.0053 49.4485 44.9819 49.4734 46.1678C49.4984 47.3537 50.2382 48.2999 51.1258 48.2812C52.0134 48.2624 52.7128 47.2858 52.6878 46.0999Z" fill="#F6E4AD"/>
</g>
</g>
<defs>
<clipPath id="clip0_324_995">
<rect width="80" height="80" fill="white"/>
</clipPath>
</defs>
</svg>
