<svg width="80" height="80" viewBox="0 0 80 80" fill="none" xmlns="http://www.w3.org/2000/svg">
<g clip-path="url(#clip0_324_1017)">
<mask id="mask0_324_1017" style="mask-type:alpha" maskUnits="userSpaceOnUse" x="0" y="0" width="80" height="80">
<path d="M80 40C80 17.9086 62.0914 0 40 0C17.9086 0 0 17.9086 0 40C0 62.0914 17.9086 80 40 80C62.0914 80 80 62.0914 80 40Z" fill="white"/>
</mask>
<g mask="url(#mask0_324_1017)">
<path d="M80 0H0V80H80V0Z" fill="#F6E4AD"/>
<path d="M31.7636 90.9345L89.7673 63.8869C97.7759 60.1524 101.241 50.6327 97.5063 42.6241L70.4587 -15.3796C66.7242 -23.3883 57.2045 -26.8532 49.1959 -23.1187L-8.8078 3.9289C-16.8164 7.66339 -20.2813 17.1831 -16.5468 25.1917L10.5007 83.1954C14.2352 91.2041 23.7549 94.669 31.7636 90.9345Z" fill="#D8A816"/>
<path d="M40.6066 38.3335C45.2278 40.1599 49.6553 39.7725 53.8892 37.1714" stroke="#F6E4AD" stroke-width="2.22222" stroke-linecap="round"/>
<path d="M40.5513 24.954C40.4443 23.7314 39.6143 22.8053 38.6973 22.8855C37.7803 22.9657 37.1237 24.0219 37.2307 25.2445C37.3376 26.4672 38.1677 27.3933 39.0847 27.313C40.0016 27.2328 40.6583 26.1766 40.5513 24.954Z" fill="#F6E4AD"/>
<path d="M53.8339 23.7919C53.7269 22.5693 52.8969 21.6432 51.9799 21.7234C51.0629 21.8036 50.4063 22.8598 50.5133 24.0824C50.6202 25.305 51.4503 26.2311 52.3673 26.1509C53.2842 26.0707 53.9409 25.0145 53.8339 23.7919Z" fill="#F6E4AD"/>
</g>
</g>
<defs>
<clipPath id="clip0_324_1017">
<rect width="80" height="80" fill="white"/>
</clipPath>
</defs>
</svg>
