<svg width="32" height="32" viewBox="0 0 32 32" fill="none" xmlns="http://www.w3.org/2000/svg">
<rect width="32" height="32" rx="5" fill="#F54747"/>
<g clip-path="url(#clip0_408_809)">
<path d="M8.70249 8.21622H12.5944C12.7555 8.21622 12.9076 8.29831 12.9988 8.4321L15.4647 12.1294C13.9596 12.2541 12.6065 12.9078 11.5849 13.902L8.2981 8.97331C8.19776 8.82433 8.18864 8.63277 8.27378 8.47466C8.35891 8.31655 8.5231 8.21622 8.70249 8.21622ZM23.7015 8.97331L20.4147 13.9051C19.3961 12.9108 18.04 12.2571 16.5349 12.1324L19.0008 8.4321C19.092 8.29527 19.244 8.21622 19.4052 8.21622H23.2971C23.4765 8.21622 23.6407 8.31351 23.7258 8.47466C23.8109 8.63581 23.8018 8.82433 23.7015 8.97331ZM21.3511 18.4324C21.3511 21.3878 18.9552 23.7838 15.9998 23.7838C13.0444 23.7838 10.6484 21.3878 10.6484 18.4324C10.6484 15.477 13.0444 13.0811 15.9998 13.0811C18.9552 13.0811 21.3511 15.477 21.3511 18.4324ZM16.2552 15.547C16.1518 15.3341 15.8508 15.3341 15.7444 15.547L15.0633 16.9274C15.0207 17.0125 14.9417 17.0703 14.8505 17.0824L13.3241 17.3044C13.09 17.3378 12.9988 17.6236 13.166 17.7909L14.2697 18.8672C14.3366 18.9341 14.367 19.0253 14.3518 19.1196L14.0903 20.6368C14.0508 20.8679 14.294 21.0473 14.5038 20.9378L15.866 20.2203C15.9481 20.1777 16.0484 20.1777 16.1305 20.2203L17.4927 20.9378C17.7025 21.0473 17.9457 20.8709 17.9062 20.6368L17.6447 19.1196C17.6295 19.0284 17.6599 18.9341 17.7268 18.8672L18.8305 17.7909C19.0008 17.6267 18.9065 17.3409 18.6724 17.3044L17.1491 17.0824C17.0579 17.0703 16.9758 17.0095 16.9363 16.9274L16.2552 15.547Z" fill="white"/>
</g>
<defs>
<clipPath id="clip0_408_809">
<rect width="15.5676" height="15.5676" fill="white" transform="translate(8.21582 8.21622)"/>
</clipPath>
</defs>
</svg>
