<svg width="37" height="37" viewBox="0 0 37 37" fill="none" xmlns="http://www.w3.org/2000/svg">
<rect width="37" height="37" rx="5" fill="#BDA8DD"/>
<g clip-path="url(#clip0_1634_2317)">
<path d="M18.5 26.2188C16.4529 26.2187 14.4896 25.4055 13.042 23.958C11.5945 22.5104 10.7813 20.5471 10.7812 18.5C10.7812 16.4529 11.5945 14.4896 13.042 13.042C14.4896 11.5945 16.4529 10.7813 18.5 10.7812C20.5471 10.7812 22.5104 11.5945 23.958 13.042C25.4055 14.4896 26.2188 16.4529 26.2188 18.5C26.2188 20.5471 25.4055 22.5104 23.958 23.958C22.5104 25.4055 20.5471 26.2188 18.5 26.2188ZM18.5 9C15.9804 9 13.5641 10.0009 11.7825 11.7825C10.0009 13.5641 9 15.9804 9 18.5C9 21.0196 10.0009 23.4359 11.7825 25.2175C13.5641 26.9991 15.9804 28 18.5 28C21.0196 28 23.4359 26.9991 25.2175 25.2175C26.9991 23.4359 28 21.0196 28 18.5C28 15.9804 26.9991 13.5641 25.2175 11.7825C23.4359 10.0009 21.0196 9 18.5 9ZM22.9865 19.9324C23.1535 19.7766 23.25 19.5576 23.25 19.3275C23.25 18.8711 22.8789 18.5 22.4225 18.5H20.2812V14.9375C20.2812 14.2807 19.7506 13.75 19.0938 13.75H17.9062C17.2494 13.75 16.7188 14.2807 16.7188 14.9375V18.5H14.5775C14.1211 18.5 13.75 18.8711 13.75 19.3275C13.75 19.5576 13.8465 19.7766 14.0135 19.9324L17.9879 23.6396C18.1289 23.7695 18.3107 23.8438 18.5 23.8438C18.6893 23.8438 18.8748 23.7695 19.0121 23.6396L22.9865 19.9324Z" fill="white"/>
</g>
<defs>
<clipPath id="clip0_1634_2317">
<rect width="19" height="19" fill="white" transform="translate(9 9)"/>
</clipPath>
</defs>
</svg>
