<svg width="32" height="32" viewBox="0 0 32 32" fill="none" xmlns="http://www.w3.org/2000/svg">
<rect width="32" height="32" rx="5" fill="#549FF8"/>
<g clip-path="url(#clip0_408_799)">
<path d="M18.7035 10.0025L17.4772 11.2289L20.7711 14.5228L21.9974 13.2965C22.6309 12.663 22.6309 11.6368 21.9974 11.0034L20.9991 10.0025C20.3657 9.36909 19.3395 9.36909 18.7061 10.0025H18.7035ZM16.9045 11.8015L10.9983 17.7103C10.7348 17.9738 10.5422 18.3007 10.4358 18.6579L9.53883 21.7061C9.47549 21.9215 9.53377 22.152 9.69086 22.3091C9.84796 22.4662 10.0785 22.5245 10.2914 22.4637L13.3395 21.5667C13.6968 21.4603 14.0236 21.2677 14.2871 21.0042L20.1985 15.0954L16.9045 11.8015Z" fill="white"/>
</g>
<defs>
<clipPath id="clip0_408_799">
<rect width="12.973" height="12.973" fill="white" transform="translate(9.51367 9.51351)"/>
</clipPath>
</defs>
</svg>
