<svg width="32" height="32" viewBox="0 0 32 32" fill="none" xmlns="http://www.w3.org/2000/svg">
<rect width="32" height="32" rx="5" fill="#36A741"/>
<g clip-path="url(#clip0_408_804)">
<path d="M16.9512 12.1081C16.9512 14.2578 15.2477 16 13.1458 16C11.0439 16 9.34038 14.2578 9.34038 12.1081C9.34038 9.95845 11.0439 8.21622 13.1458 8.21622C15.2477 8.21622 16.9512 9.95845 16.9512 12.1081ZM6.48633 22.8807C6.48633 19.8858 8.85876 17.4595 11.7871 17.4595H14.5044C17.4328 17.4595 19.8052 19.8858 19.8052 22.8807C19.8052 23.3794 19.4098 23.7838 18.9223 23.7838H7.3693C6.88173 23.7838 6.48633 23.3794 6.48633 22.8807ZM24.6007 23.7838H20.5009C20.6615 23.498 20.7566 23.1666 20.7566 22.8108V22.5676C20.7566 20.722 19.9509 19.0649 18.6815 17.952C18.7528 17.949 18.8212 17.9459 18.8925 17.9459H20.718C23.3669 17.9459 25.5134 20.1412 25.5134 22.8503C25.5134 23.3672 25.1031 23.7838 24.6007 23.7838ZM19.3296 16C18.4079 16 17.5755 15.6169 16.972 14.9997C17.5577 14.1909 17.9025 13.1905 17.9025 12.1081C17.9025 11.2932 17.7063 10.524 17.3585 9.84899C17.9115 9.43547 18.5923 9.18919 19.3296 9.18919C21.1698 9.18919 22.6593 10.7125 22.6593 12.5946C22.6593 14.4767 21.1698 16 19.3296 16Z" fill="white"/>
</g>
<defs>
<clipPath id="clip0_408_804">
<rect width="19.027" height="15.5676" fill="white" transform="translate(6.48633 8.21622)"/>
</clipPath>
</defs>
</svg>
