<svg width="32" height="32" viewBox="0 0 32 32" fill="none" xmlns="http://www.w3.org/2000/svg">
<rect width="32" height="32" rx="5" fill="#2DBBB2"/>
<g clip-path="url(#clip0_408_814)">
<path d="M15.1487 11.1757C15.1487 10.7039 15.5282 10.3243 16 10.3243C16.4718 10.3243 16.8514 10.7039 16.8514 11.1757V15.5459L19.8772 17.5608C20.2674 17.8233 20.3738 18.3519 20.083 18.7421C19.8524 19.1323 19.3238 19.2387 18.9336 18.9478L15.5282 16.6775C15.2906 16.5498 15.1487 16.2838 15.1487 15.9681V11.1757ZM16 6.91892C21.0159 6.91892 25.0811 10.9841 25.0811 16C25.0811 21.0159 21.0159 25.0811 16 25.0811C10.9841 25.0811 6.91895 21.0159 6.91895 16C6.91895 10.9841 10.9841 6.91892 16 6.91892ZM8.62165 16C8.62165 20.0758 11.9242 23.3784 16 23.3784C20.0759 23.3784 23.3784 20.0758 23.3784 16C23.3784 11.9242 20.0759 8.62163 16 8.62163C11.9242 8.62163 8.62165 11.9242 8.62165 16Z" fill="white"/>
</g>
<defs>
<clipPath id="clip0_408_814">
<rect width="18.1622" height="18.1622" fill="white" transform="translate(6.91895 6.91892)"/>
</clipPath>
</defs>
</svg>
