<svg width="32" height="32" viewBox="0 0 32 32" fill="none" xmlns="http://www.w3.org/2000/svg">
<rect width="32" height="32" rx="5" fill="#E46924"/>
<g clip-path="url(#clip0_408_819)">
<path d="M8.96574 13.7652L9.29918 14.347C9.59361 14.8613 10.076 15.2409 10.6472 15.404L12.701 15.9894C13.3112 16.1632 13.7298 16.7201 13.7298 17.3551V18.7704C13.7298 19.1606 13.9497 19.5154 14.2973 19.6892C14.645 19.863 14.8649 20.2177 14.8649 20.6079V21.9914C14.8649 22.5448 15.3934 22.9456 15.9255 22.7931C16.4966 22.6299 16.9401 22.1723 17.0855 21.5941L17.1848 21.1968C17.3338 20.5973 17.724 20.0829 18.2597 19.7779L18.547 19.6147C19.0791 19.3132 19.4054 18.7456 19.4054 18.1355V17.841C19.4054 17.3905 19.2245 16.9578 18.9053 16.6385L18.7669 16.5002C18.4477 16.1809 18.0149 16 17.5644 16H16.0355C15.6417 16 15.2515 15.8971 14.9075 15.702L13.6836 15.0032C13.5311 14.9145 13.414 14.7726 13.3573 14.6059C13.2438 14.2654 13.3963 13.8964 13.7191 13.7368L13.9284 13.6304C14.1625 13.5133 14.4357 13.4921 14.684 13.5772L15.507 13.8503C15.7978 13.9461 16.1171 13.8361 16.2838 13.5843C16.4505 13.336 16.4328 13.0061 16.2412 12.7755L15.7588 12.1973C15.4041 11.7716 15.4076 11.1508 15.7695 10.7323L16.3264 10.0831C16.6385 9.71773 16.6882 9.19628 16.4505 8.78125L16.3654 8.63226C16.2412 8.62516 16.1206 8.62162 15.9965 8.62162C12.7046 8.62162 9.91286 10.7819 8.96574 13.7652ZM23.3784 16C23.3784 14.6946 23.0379 13.4672 22.4419 12.3995L21.5338 12.7649C20.9769 12.9883 20.6896 13.6091 20.8776 14.1767L21.4771 15.9752C21.6012 16.3441 21.9027 16.6243 22.2787 16.7166L23.311 16.9755C23.3536 16.6562 23.3749 16.3299 23.3749 16H23.3784ZM25.0811 16C25.0811 21.0159 21.0159 25.0811 16 25.0811C10.9841 25.0811 6.91895 21.0159 6.91895 16C6.91895 10.9841 10.9841 6.91891 16 6.91891C21.0159 6.91891 25.0811 10.9841 25.0811 16Z" fill="white"/>
</g>
<defs>
<clipPath id="clip0_408_819">
<rect width="18.1622" height="18.1622" fill="white" transform="translate(6.91895 6.91891)"/>
</clipPath>
</defs>
</svg>
