<svg width="32" height="32" viewBox="0 0 32 32" fill="none" xmlns="http://www.w3.org/2000/svg">
<rect width="32" height="32" rx="5" fill="#8264FB"/>
<g clip-path="url(#clip0_408_824)">
<path d="M11.5517 6.05405C9.71003 6.05405 8.21582 7.72465 8.21582 9.78378V22.2162C8.21582 24.2753 9.71003 25.9459 11.5517 25.9459H21.5595H22.6714C23.2865 25.9459 23.7834 25.3904 23.7834 24.7027C23.7834 24.015 23.2865 23.4595 22.6714 23.4595V20.973C23.2865 20.973 23.7834 20.4174 23.7834 19.7297V7.29729C23.7834 6.60962 23.2865 6.05405 22.6714 6.05405H21.5595H11.5517ZM11.5517 20.973H20.4475V23.4595H11.5517C10.9367 23.4595 10.4398 22.9039 10.4398 22.2162C10.4398 21.5285 10.9367 20.973 11.5517 20.973ZM12.6637 11.6486C12.6637 11.3067 12.9139 11.027 13.2197 11.027H19.8915C20.1973 11.027 20.4475 11.3067 20.4475 11.6486C20.4475 11.9905 20.1973 12.2703 19.8915 12.2703H13.2197C12.9139 12.2703 12.6637 11.9905 12.6637 11.6486ZM13.2197 13.5135H19.8915C20.1973 13.5135 20.4475 13.7932 20.4475 14.1351C20.4475 14.477 20.1973 14.7567 19.8915 14.7567H13.2197C12.9139 14.7567 12.6637 14.477 12.6637 14.1351C12.6637 13.7932 12.9139 13.5135 13.2197 13.5135Z" fill="white"/>
</g>
<defs>
<clipPath id="clip0_408_824">
<rect width="15.5676" height="19.8919" fill="white" transform="translate(8.21582 6.05405)"/>
</clipPath>
</defs>
</svg>
