<svg width="32" height="32" viewBox="0 0 32 32" fill="none" xmlns="http://www.w3.org/2000/svg">
<circle cx="16" cy="16" r="16" fill="#EEE9F7"/>
<g clip-path="url(#clip0_1084_1855)">
<path d="M24.5332 14.2715C22.856 14.2755 21.22 13.7606 19.8562 12.7997V19.5017C19.8557 20.7429 19.4703 21.9545 18.7515 22.9743C18.0326 23.9942 17.0146 24.7737 15.8336 25.2086C14.6525 25.6435 13.3647 25.7132 12.1424 25.4082C10.9201 25.1032 9.82145 24.4382 8.99345 23.502C8.16544 22.5658 7.64753 21.4031 7.50895 20.1693C7.37037 18.9355 7.61773 17.6895 8.21796 16.5979C8.81819 15.5063 9.74268 14.621 10.8678 14.0605C11.9929 13.5001 13.2651 13.2911 14.5141 13.4615V16.8324C13.9425 16.6554 13.3288 16.6608 12.7605 16.8476C12.1922 17.0345 11.6984 17.3934 11.3496 17.873C11.0009 18.3526 10.815 18.9284 10.8185 19.5182C10.8221 20.108 11.0148 20.6816 11.3693 21.1571C11.7238 21.6327 12.2218 21.9858 12.7923 22.1661C13.3628 22.3463 13.9766 22.3445 14.546 22.161C15.1154 21.9774 15.6113 21.6214 15.9629 21.1438C16.3145 20.6662 16.5038 20.0915 16.5038 19.5017V6.3999H19.8562C19.8539 6.67858 19.8776 6.95688 19.9271 7.23128C20.0435 7.84383 20.2858 8.42655 20.6389 8.9438C20.992 9.46105 21.4486 9.90195 21.9808 10.2395C22.7379 10.7323 23.6255 10.995 24.5332 10.9948V14.2715Z" fill="#BDA8DD"/>
</g>
<defs>
<clipPath id="clip0_1084_1855">
<rect width="17.0667" height="19.2" fill="white" transform="translate(7.46655 6.3999)"/>
</clipPath>
</defs>
</svg>
