<svg width="30" height="32" viewBox="0 0 30 32" fill="none" xmlns="http://www.w3.org/2000/svg">
<path d="M8.65381 10.2856H5.19227C4.96712 13.4308 5.50511 15.179 6.92304 18.2856C9.6593 21.5398 11.8577 22.332 16.7307 22.2856V18.2856L21.3461 22.2856H25.3846L19.6154 16.5714L24.2307 10.2856H20.7692L16.7307 14.8571V10.2856H12.6923V18.2856C10.3102 15.8078 9.39441 14.078 8.65381 10.2856Z" fill="#BDA8DD" stroke="#BDA8DD" stroke-width="2"/>
<path d="M2.10875 3.96817C0 5.93633 0 9.10444 0 15.44V16.56C0 22.8956 0 26.0637 2.10875 28.0318C4.2175 30 7.6119 30 14.4 30H15.6C22.3881 30 25.7825 30 27.8912 28.0318C30 26.0637 30 22.8956 30 16.56V15.44C30 9.10444 30 5.93633 27.8912 3.96817C25.7825 2 22.3881 2 15.6 2H14.4C7.6119 2 4.2175 2 2.10875 3.96817ZM5.0625 10.5167H8.48752C8.60002 15.86 11.125 18.1233 13.125 18.59V10.5167H16.35V15.125C18.325 14.9267 20.4 12.8267 21.1 10.5167H24.325C24.0611 11.7147 23.5353 12.8489 22.7803 13.8487C22.0254 14.8484 21.0577 15.6919 19.9375 16.3267C21.1882 16.9062 22.2929 17.7269 23.1785 18.7344C24.0641 19.7421 24.7105 20.9136 25.075 22.1717H21.525C21.1979 21.0789 20.5322 20.1006 19.6115 19.3596C18.6909 18.6187 17.5562 18.148 16.35 18.0067V22.1717H15.9625C9.12502 22.1717 5.225 17.7967 5.0625 10.5167Z" fill="#EEE9F7"/>
</svg>
