<svg width="61" height="75" viewBox="0 0 61 75" fill="none" xmlns="http://www.w3.org/2000/svg">
<g opacity="0.3" filter="url(#filter0_f_44_10)">
<ellipse cx="30.5" cy="63.4467" rx="26.5" ry="7.55319" fill="url(#paint0_linear_44_10)"/>
</g>
<path d="M51.2026 23.2863C51.2026 25.6593 50.4485 28.6206 49.1369 31.9326C47.8342 35.2219 46.0261 38.7485 44.0188 42.2196C40.005 49.1603 35.2588 55.7698 32.3553 59.6433C31.5562 60.7006 30.1595 60.7005 29.3605 59.643C26.457 55.7695 21.711 49.1602 17.6973 42.2196C15.6899 38.7485 13.8818 35.2219 12.5792 31.9326C11.2675 28.6206 10.5134 25.6593 10.5134 23.2863C10.5134 11.167 19.7153 1.5 30.858 1.5C42.0008 1.5 51.2026 11.167 51.2026 23.2863Z" fill="#F4DC92" stroke="#D8A816" stroke-width="3"/>
<path d="M27.807 20.6039L27.8222 20.6298L27.8389 20.6548C28.1899 21.1792 28.7925 21.4739 29.354 21.6632L29.3654 21.667L29.3769 21.6706C30.2713 21.9483 31.1144 22.1922 31.9057 22.4019L31.9057 22.402L31.9137 22.404L34.317 23.0197C34.897 23.1748 35.4972 23.3938 36.1181 23.6801L36.1377 23.6891L36.1576 23.6973C36.6782 23.9107 37.1612 24.2489 37.6065 24.7337L37.625 24.7538L37.6446 24.7729C38.0782 25.1961 38.4465 25.7777 38.7268 26.5554L38.7312 26.5678L38.736 26.5801C39.0243 27.3186 39.188 28.2786 39.1893 29.4914C39.1374 31.1331 38.8362 32.4305 38.3335 33.4256C37.7956 34.4903 37.1522 35.3191 36.4152 35.9386L36.4092 35.9437L36.4033 35.9488C35.6845 36.5724 34.8793 37.0152 33.9799 37.2832C33.0151 37.5355 32.1022 37.6577 31.2388 37.6577C30.1733 37.6577 29.1203 37.5314 28.0782 37.2783C27.0983 37.0074 26.1971 36.5436 25.3692 35.8782C24.5766 35.2199 23.8654 34.3339 23.2476 33.1943C22.7845 32.3402 22.4292 31.2789 22.1989 29.9926H27.5161C27.7725 30.556 28.1552 31.0406 28.6627 31.4306L28.672 31.4377L28.6814 31.4447C29.4342 31.9956 30.316 32.2546 31.2789 32.2546C32.0226 32.2546 32.7273 32.08 33.3145 31.6503L33.3375 31.6335L33.3595 31.6153C33.9618 31.1194 34.2857 30.4435 34.2857 29.6609C34.2857 29.1531 34.1488 28.6424 33.7947 28.2227C33.5117 27.8271 33.1242 27.5476 32.6901 27.3597C32.3132 27.186 31.8956 27.0651 31.4492 26.986C31.0679 26.8879 30.6476 26.7735 30.188 26.6427L30.188 26.6427L30.1811 26.6408C29.2231 26.3755 28.1817 26.0424 27.0562 25.6405C26.0246 25.2298 25.2158 24.7404 24.6033 24.1884L24.5874 24.174L24.5708 24.1603C23.8838 23.5926 23.3862 22.8882 23.0712 22.0291C22.7687 21.1303 22.6212 20.1038 22.6458 18.9373L22.6459 18.9321C22.6706 17.38 22.9907 16.1566 23.5493 15.2114C24.1774 14.1598 24.9184 13.3711 25.7627 12.8146C26.4719 12.3612 27.207 12.0491 27.9705 11.8709C28.8027 11.6831 29.6773 11.5878 30.5966 11.5878C31.617 11.5878 32.579 11.7431 33.4881 12.0495L33.4881 12.0495L33.4955 12.0519C34.3998 12.3489 35.1959 12.8217 35.8923 13.4759C36.5815 14.1232 37.1793 14.9836 37.6706 16.0848L37.6766 16.0983L37.6831 16.1117C38.0616 16.8966 38.3483 17.837 38.5309 18.9444H33.5851C33.3832 18.4483 33.048 18.0224 32.5811 17.6902C31.9018 17.2067 31.1011 16.9908 30.2353 16.9908C29.5661 16.9908 28.9295 17.1507 28.3832 17.5275C27.7736 17.948 27.4292 18.5768 27.4292 19.3275C27.4292 19.7936 27.585 20.2247 27.807 20.6039Z" fill="#FCF6E4" stroke="#D8A816" stroke-width="2"/>
<defs>
<filter id="filter0_f_44_10" x="0" y="51.8936" width="61" height="23.1063" filterUnits="userSpaceOnUse" color-interpolation-filters="sRGB">
<feFlood flood-opacity="0" result="BackgroundImageFix"/>
<feBlend mode="normal" in="SourceGraphic" in2="BackgroundImageFix" result="shape"/>
<feGaussianBlur stdDeviation="2" result="effect1_foregroundBlur_44_10"/>
</filter>
<linearGradient id="paint0_linear_44_10" x1="30.5" y1="55.8936" x2="30.5" y2="70.9999" gradientUnits="userSpaceOnUse">
<stop stop-opacity="0"/>
<stop offset="1"/>
</linearGradient>
</defs>
</svg>
